<svg xmlns="http://www.w3.org/2000/svg" viewBox="0 0 289.03 100.5"><defs><style>.cls-1{fill:none;stroke:#0f00ec;stroke-linecap:round;stroke-miterlimit:10;stroke-width:17px;}.cls-2{fill:#0f00ec;}.cls-3{font-size:66px;fill:#fff;font-family:ObjektivMk1-BlackItalic, Objektiv Mk1;font-weight:800;font-style:italic;}</style></defs><g id="Layer_2" data-name="Layer 2"><g id="Layer_1-2" data-name="Layer 1"><line class="cls-1" x1="8.5" y1="73.67" x2="29.8" y2="9.44"/><path class="cls-2" d="M29.36.49A59.13,59.13,0,0,1,48.11,1,43.13,43.13,0,0,1,65.6,8.75c.32.24.66.47,1,.72l.9.81,1.79,1.61c.61.53,1.1,1.18,1.65,1.76s1.08,1.18,1.57,1.81a38.65,38.65,0,0,1,4.87,8.15,36.91,36.91,0,0,1,3,18.16,38.41,38.41,0,0,1-5.68,16.92,42.18,42.18,0,0,1-12,12.41,56.42,56.42,0,0,1-15.13,7.19l-4,1.11c-1.33.33-2.7.54-4,.82l-2,.39-2,.24-4.06.48-.4,0a7.48,7.48,0,0,1-1.74-14.85h0l3.35-.39L34.29,66l1.61-.31c1.07-.22,2.19-.38,3.24-.64l3.1-.84a42.65,42.65,0,0,0,11-5.06C59.78,54.84,64,48.49,64.84,41.31a21.31,21.31,0,0,0-1.49-10.65,22.8,22.8,0,0,0-2.69-4.81c-.28-.37-.61-.71-.9-1.07a13.31,13.31,0,0,0-.93-1.06l-1-1-.51-.5-.58-.43a26.58,26.58,0,0,0-10.94-5,41.81,41.81,0,0,0-13.47-.49l-1.09.12a8,8,0,0,1-1.84-16Z"/><text class="cls-3" transform="translate(76.38 82.22)">ecider</text></g></g></svg>
